<?xml version="1.0" standalone="no"?>
<!DOCTYPE svg PUBLIC "-//W3C//DTD SVG 20010904//EN"
 "http://www.w3.org/TR/2001/REC-SVG-20010904/DTD/svg10.dtd">
<svg version="1.0" xmlns="http://www.w3.org/2000/svg"
 width="500.000000pt" height="500.000000pt" viewBox="0 0 500.000000 500.000000"
 preserveAspectRatio="xMidYMid meet">
<metadata>
Created by potrace 1.11, written by Peter Selinger 2001-2013
</metadata>
<g transform="translate(0.000000,500.000000) scale(0.100000,-0.100000)"
fill="#000000" stroke="none">
<path d="M0 2500 l0 -2500 2500 0 2500 0 0 2500 0 2500 -2500 0 -2500 0 0
-2500z m3480 0 l0 -980 -980 0 -980 0 0 980 0 980 980 0 980 0 0 -980z"/>
<path d="M1580 2500 l0 -920 920 0 920 0 0 920 0 920 -920 0 -920 0 0 -920z
m295 515 c0 -15 -8 -21 -32 -23 l-33 -3 0 -85 c0 -77 -2 -84 -20 -84 -18 0
-20 7 -20 85 l0 85 -29 0 c-33 0 -46 13 -37 36 5 12 22 14 88 12 75 -3 83 -5
83 -23z m67 -17 c3 -42 4 -43 41 -46 l37 -3 0 45 c0 42 2 46 25 46 l25 0 0
-110 c0 -110 0 -110 -24 -110 -22 0 -25 5 -28 43 -3 41 -4 42 -38 42 -34 0
-35 -1 -36 -40 0 -33 -4 -41 -22 -43 -22 -3 -22 -1 -22 107 0 103 1 111 19
111 16 0 20 -8 23 -42z m271 31 c12 -7 25 -17 29 -23 15 -21 8 -70 -12 -92
l-21 -21 26 -31 c32 -38 31 -42 -3 -42 -20 0 -32 8 -45 30 -10 17 -23 30 -29
30 -6 0 -8 -13 -6 -30 4 -26 1 -30 -19 -30 -23 0 -23 2 -23 110 l0 110 41 0
c22 0 50 -5 62 -11z m117 -99 l0 -110 -25 0 -25 0 0 110 0 110 25 0 25 0 0
-110z m165 85 c0 -16 -8 -21 -37 -23 -30 -3 -38 -7 -38 -23 0 -15 7 -19 35
-19 28 0 35 -4 35 -20 0 -16 -7 -20 -35 -20 -35 0 -35 0 -35 -45 0 -41 -2 -45
-25 -45 l-25 0 0 110 0 111 63 -3 c54 -3 62 -5 62 -23z m190 0 c0 -15 -8 -21
-32 -23 l-33 -3 0 -85 c0 -77 -2 -84 -20 -84 -18 0 -20 7 -20 85 l0 85 -29 0
c-33 0 -46 13 -37 36 5 12 22 14 88 12 75 -3 83 -5 83 -23z m133 9 c23 -16 31
-67 11 -79 -6 -5 -3 -13 10 -22 27 -18 27 -57 1 -83 -15 -15 -33 -20 -75 -20
l-55 0 0 110 0 110 43 0 c23 0 53 -7 65 -16z m219 -94 c23 -58 43 -106 43
-107 0 -2 -11 -3 -24 -3 -16 0 -27 7 -31 20 -5 16 -15 20 -52 20 -36 0 -46 -4
-50 -20 -3 -13 -14 -20 -29 -20 -13 0 -24 3 -24 8 0 4 19 53 42 110 55 136 65
135 125 -8z m124 75 c12 -19 24 -35 28 -35 5 0 16 16 27 35 15 28 25 35 47 35
l29 0 -17 -27 c-10 -16 -29 -44 -42 -63 -16 -24 -23 -49 -23 -82 0 -43 -2 -48
-22 -48 -21 0 -23 4 -20 47 3 42 -1 55 -37 106 -23 32 -41 60 -41 62 0 3 11 5
25 5 19 0 31 -10 46 -35z m-735 -529 c59 -27 109 -75 142 -134 l23 -42 -75 0
c-62 0 -77 3 -88 19 -24 35 -81 61 -131 61 -56 0 -95 -18 -131 -60 -96 -115
-19 -300 125 -300 61 0 89 11 125 49 27 29 33 31 102 31 l73 0 -17 -32 c-45
-87 -104 -136 -200 -164 -110 -32 -221 2 -304 93 -185 202 -23 532 250 507 30
-3 78 -15 106 -28z m645 3 c58 -25 132 -102 162 -167 62 -139 -12 -321 -161
-393 -68 -33 -178 -33 -247 1 -177 86 -236 290 -129 447 86 126 236 171 375
112z m-1184 -461 c31 -29 30 -72 -3 -103 -33 -30 -63 -32 -98 -4 -33 26 -36
79 -6 109 27 27 77 26 107 -2z"/>
<path d="M2152 2973 c3 -32 44 -46 54 -19 8 21 -13 46 -38 46 -15 0 -19 -6
-16 -27z"/>
<path d="M2750 2975 c0 -18 5 -25 19 -25 20 0 31 17 24 38 -3 6 -13 12 -24 12
-14 0 -19 -7 -19 -25z"/>
<path d="M2752 2888 c4 -31 53 -34 53 -3 0 15 -8 21 -28 23 -25 3 -28 0 -25
-20z"/>
<path d="M2961 2947 c-16 -41 -14 -47 15 -47 22 0 24 3 18 23 -14 48 -22 54
-33 24z"/>
<path d="M2915 2370 c-44 -10 -70 -26 -99 -60 -59 -71 -54 -164 13 -231 73
-73 172 -72 243 2 40 42 54 86 45 150 -12 91 -113 160 -202 139z"/>
</g>
</svg>
